<svg width="16" xmlns="http://www.w3.org/2000/svg" height="16" id="screenshot-6940a04d-a9f4-80d6-8008-40056cb6a0f6" viewBox="0 0 16 16" xmlns:xlink="http://www.w3.org/1999/xlink" fill="none" version="1.1"><g id="shape-6940a04d-a9f4-80d6-8008-40056cb6a0f6"><defs><clipPath id="frame-clip-6940a04d-a9f4-80d6-8008-40056cb6a0f6-render-1" class="frame-clip frame-clip-def"><rect rx="0" ry="0" x="0" y="0" width="16.000000476837158" height="15.99999988079071" transform="matrix(1.000000, 0.000000, 0.000000, 1.000000, 0.000000, 0.000000)"/></clipPath></defs><g class="frame-container-wrapper"><g class="frame-container-blur"><g class="frame-container-shadows"><g clip-path="url(#frame-clip-6940a04d-a9f4-80d6-8008-40056cb6a0f6-render-1)" fill="none"><g class="fills" id="fills-6940a04d-a9f4-80d6-8008-40056cb6a0f6"><rect rx="0" ry="0" x="0" y="0" width="16.000000476837158" height="15.99999988079071" transform="matrix(1.000000, 0.000000, 0.000000, 1.000000, 0.000000, 0.000000)" class="frame-background"/></g><g class="frame-children"><g id="shape-6940a04d-a9f4-80d6-8008-40056cb6a0f7"><g class="frame-container-wrapper"><g class="frame-container-blur"><g class="frame-container-shadows"><g fill="none"><g class="fills" id="fills-6940a04d-a9f4-80d6-8008-40056cb6a0f7"><rect rx="0" ry="0" x="-0.000013828277587890625" y="0.000005364418029785156" width="16" height="15.999993681907654" transform="matrix(1.000000, 0.000000, 0.000000, 1.000000, 0.000000, 0.000000)" class="frame-background"/></g><g class="frame-children"><g id="shape-6940a04d-a9f4-80d6-8008-40056cb72173"><g class="fills" id="fills-6940a04d-a9f4-80d6-8008-40056cb72173"><path d="M-0.00001430511474609375,16.0000057220459C-0.00001430511474609375,16.0000057220459,-0.00001430511474609375,14.000005722045898,-0.00001430511474609375,12.000005722045898C-0.00001430511474609375,9.000005722045898,1.999985694885254,9.000005722045898,3.999985694885254,9.000005722045898C9.999985694885254,9.000005722045898,5.999985694885254,9.000005722045898,11.999985694885254,9.000005722045898C13.999985694885254,9.000005722045898,15.999985694885254,9.000005722045898,15.999985694885254,12.000005722045898C15.999985694885254,14.000005722045898,15.999985694885254,16.0000057220459,15.999985694885254,16.0000057220459M2.999985694885254,0.0000059604644775390625L12.999985694885254,0.0000059604644775390625L12.999985694885254,8.000005722045898L2.999985694885254,8.000005722045898L2.999985694885254,0.0000059604644775390625M7.000046730041504,2.0000059604644775L4.999985694885254,2.0000059604644775L4.999985694885254,5.000005722045898L7.000046730041504,5.000005722045898L7.000046730041504,2.0000059604644775M10.999985694885254,2.0000059604644775L8.999985694885254,2.0000059604644775L8.999985694885254,5.000005722045898L10.999985694885254,5.000005722045898L10.999985694885254,2.0000059604644775" style="fill: rgb(75, 98, 191); fill-opacity: 1;"/></g></g></g></g></g></g></g></g></g></g></g></g></g></g></svg>