<svg width="16" xmlns="http://www.w3.org/2000/svg" height="16" id="screenshot-6940a04d-a9f4-80d6-8008-40068597b79d" viewBox="0 0 16 16" xmlns:xlink="http://www.w3.org/1999/xlink" fill="none" version="1.1"><g id="shape-6940a04d-a9f4-80d6-8008-40068597b79d"><defs><clipPath id="frame-clip-6940a04d-a9f4-80d6-8008-40068597b79d-render-1" class="frame-clip frame-clip-def"><rect rx="0" ry="0" x="0" y="0" width="16.000000476837158" height="16.00001513957966" transform="matrix(1.000000, 0.000000, 0.000000, 1.000000, 0.000000, 0.000000)"/></clipPath></defs><g class="frame-container-wrapper"><g class="frame-container-blur"><g class="frame-container-shadows"><g clip-path="url(#frame-clip-6940a04d-a9f4-80d6-8008-40068597b79d-render-1)" fill="none"><g class="fills" id="fills-6940a04d-a9f4-80d6-8008-40068597b79d"><rect rx="0" ry="0" x="0" y="0" width="16.000000476837158" height="16.00001513957966" transform="matrix(1.000000, 0.000000, 0.000000, 1.000000, 0.000000, 0.000000)" class="frame-background"/></g><g class="frame-children"><g id="shape-6940a04d-a9f4-80d6-8008-40068597b79e"><g class="frame-container-wrapper"><g class="frame-container-blur"><g class="frame-container-shadows"><g fill="none"><g class="fills" id="fills-6940a04d-a9f4-80d6-8008-40068597b79e"><rect rx="0" ry="0" x="-0.000013828277587890625" y="0.000005364423145692854" width="16" height="16.00000894069069" transform="matrix(1.000000, 0.000000, 0.000000, 1.000000, 0.000000, 0.000000)" class="frame-background"/></g><g class="frame-children"><g id="shape-6940a04d-a9f4-80d6-8008-40068597b79f"><g class="fills" id="fills-6940a04d-a9f4-80d6-8008-40068597b79f"><path d="M-0.000013828277587890625,16.000024795532227C-0.000013828277587890625,16.000024795532227,-0.000013828277587890625,14.00002384185791,-0.000013828277587890625,12.00002384185791C-0.000013828277587890625,9.000008583068848,1.999986171722412,9.000008583068848,3.999986171722412,9.000008583068848C9.99998664855957,9.000008583068848,5.999986171722412,9.000008583068848,11.99998664855957,9.000008583068848C13.99998664855957,9.000008583068848,15.99998664855957,9.000008583068848,15.99998664855957,12.00002384185791C15.99998664855957,14.00002384185791,15.99998664855957,16.000024795532227,15.99998664855957,16.000024795532227M2.999986171722412,-0.000006437296178773977L12.99998664855957,-0.000006437296178773977L12.99998664855957,8.000008583068848L2.999986171722412,8.000008583068848L2.999986171722412,-0.000006437296178773977M7.000047206878662,1.9999935626983643L4.999986171722412,1.9999935626983643L4.999986171722412,5.000009059906006L7.000047206878662,5.000009059906006L7.000047206878662,1.9999935626983643M10.99998664855957,1.9999935626983643L8.99998664855957,1.9999935626983643L8.99998664855957,5.000009059906006L10.99998664855957,5.000009059906006L10.99998664855957,1.9999935626983643" style="fill: rgb(142, 142, 142); fill-opacity: 1;"/></g></g></g></g></g></g></g></g></g></g></g></g></g></g></svg>