<svg width="16" xmlns="http://www.w3.org/2000/svg" height="16" id="screenshot-6940a04d-a9f4-80d6-8008-40011d27bbcb" viewBox="0 0 16 16" xmlns:xlink="http://www.w3.org/1999/xlink" fill="none" version="1.1"><g id="shape-6940a04d-a9f4-80d6-8008-40011d27bbcb"><defs><clipPath id="frame-clip-6940a04d-a9f4-80d6-8008-40011d27bbcb-render-1" class="frame-clip frame-clip-def"><rect rx="0" ry="0" x="0" y="0" width="16.000000476837158" height="15.99999988079071" transform="matrix(1.000000, 0.000000, 0.000000, 1.000000, 0.000000, 0.000000)"/></clipPath></defs><g class="frame-container-wrapper"><g class="frame-container-blur"><g class="frame-container-shadows"><g clip-path="url(#frame-clip-6940a04d-a9f4-80d6-8008-40011d27bbcb-render-1)" fill="none"><g class="fills" id="fills-6940a04d-a9f4-80d6-8008-40011d27bbcb"><rect rx="0" ry="0" x="0" y="0" width="16.000000476837158" height="15.99999988079071" transform="matrix(1.000000, 0.000000, 0.000000, 1.000000, 0.000000, 0.000000)" class="frame-background"/></g><g class="frame-children"><g id="shape-6940a04d-a9f4-80d6-8008-4001dff10f3e"><g class="frame-container-wrapper"><g class="frame-container-blur"><g class="frame-container-shadows"><g fill="none"><g class="fills" id="fills-6940a04d-a9f4-80d6-8008-4001dff10f3e"><rect rx="0" ry="0" x="-0.000013828277587890625" y="0.000005364418029785156" width="16" height="15.999993681907654" transform="matrix(1.000000, 0.000000, 0.000000, 1.000000, 0.000000, 0.000000)" class="frame-background"/></g><g class="frame-children"><g id="shape-6940a04d-a9f4-80d6-8008-4003d4fbb140"><g class="fills" id="fills-6940a04d-a9f4-80d6-8008-4003d4fbb140"><path d="M-0.000013828277587890625,15.999992370605469C-0.000013828277587890625,15.999992370605469,-0.000013828277587890625,13.999992370605469,-0.000013828277587890625,11.999992370605469C-0.000013828277587890625,8.999992370605469,1.999986171722412,8.999992370605469,3.999986171722412,8.999992370605469C9.99998664855957,8.999992370605469,5.999986171722412,8.999992370605469,11.99998664855957,8.999992370605469C13.99998664855957,8.999992370605469,15.99998664855957,8.999992370605469,15.99998664855957,11.999992370605469C15.99998664855957,13.999992370605469,15.99998664855957,15.999992370605469,15.99998664855957,15.999992370605469M2.999986171722412,-0.0000073909759521484375L12.99998664855957,-0.0000073909759521484375L12.99998664855957,7.999992370605469L2.999986171722412,7.999992370605469L2.999986171722412,-0.0000073909759521484375M7.000047206878662,1.9999926090240479L4.999986171722412,1.9999926090240479L4.999986171722412,4.999992370605469L7.000047206878662,4.999992370605469L7.000047206878662,1.9999926090240479M10.99998664855957,1.9999926090240479L8.99998664855957,1.9999926090240479L8.99998664855957,4.999992370605469L10.99998664855957,4.999992370605469L10.99998664855957,1.9999926090240479" style="fill: rgb(89, 178, 70); fill-opacity: 1;"/></g></g></g></g></g></g></g></g></g></g></g></g></g></g></svg>